{
  "accessors": [
    {
      "bufferView": 2,
      "componentType": 5126,
      "count": 3796,
      "max": [
        21.836393356323242,
        12.491174697875977,
        44.409217834472656
      ],
      "min": [
        -27.296682357788086,
        0.25684100389480591,
        0.76482200622558594
      ],
      "type": "VEC3"
    },
    {
      "bufferView": 2,
      "byteOffset": 45552,
      "componentType": 5126,
      "count": 3796,
      "max": [
        0.99997156858444214,
        0.9999382495880127,
        0.99990212917327881
      ],
      "min": [
        -0.99997156858444214,
        -1,
        -0.99999791383743286
      ],
      "type": "VEC3"
    },
    {
      "bufferView": 3,
      "componentType": 5126,
      "count": 3796,
      "max": [
        0.99941927194595337,
        0.99999797344207764,
        0.99235993623733521,
        1
      ],
      "min": [
        -0.99941921234130859,
        -0.99988746643066406,
        -1,
        -1
      ],
      "type": "VEC4"
    },
    {
      "bufferView": 1,
      "componentType": 5126,
      "count": 3796,
      "max": [
        0.97639602422714233,
        0.97738397121429443
      ],
      "min": [
        0.027515999972820282,
        0.015626000240445137
      ],
      "type": "VEC2"
    },
    {
      "bufferView": 0,
      "componentType": 5125,
      "count": 19890,
      "max": [
        3795
      ],
      "min": [
        0
      ],
      "type": "SCALAR"
    },
    {
      "bufferView": 2,
      "byteOffset": 91104,
      "componentType": 5126,
      "count": 68,
      "max": [
        -1.1554830074310303,
        3.8937869071960449,
        40.343902587890625
      ],
      "min": [
        -4.3048062324523926,
        3.0899689197540283,
        38.381446838378906
      ],
      "type": "VEC3"
    },
    {
      "bufferView": 2,
      "byteOffset": 91920,
      "componentType": 5126,
      "count": 68,
      "max": [
        0.98835170269012451,
        0.97051757574081421,
        1
      ],
      "min": [
        -0.98835164308547974,
        -0.97684633731842041,
        -0.53069722652435303
      ],
      "type": "VEC3"
    },
    {
      "bufferView": 3,
      "byteOffset": 60736,
      "componentType": 5126,
      "count": 68,
      "max": [
        0.79660642147064209,
        0.7079613208770752,
        0.0054723550565540791,
        1
      ],
      "min": [
        -0.79660671949386597,
        -0.99432843923568726,
        -0.98644298315048218,
        -1
      ],
      "type": "VEC4"
    },
    {
      "bufferView": 1,
      "byteOffset": 30368,
      "componentType": 5126,
      "count": 68,
      "max": [
        0.10365299880504608,
        0.9322580099105835
      ],
      "min": [
        0.05293700098991394,
        0.9160500168800354
      ],
      "type": "VEC2"
    },
    {
      "bufferView": 0,
      "byteOffset": 79560,
      "componentType": 5125,
      "count": 264,
      "max": [
        67
      ],
      "min": [
        0
      ],
      "type": "SCALAR"
    }
  ],
  "asset": {
    "extras": {
      "author": "orioltron (https://sketchfab.com/orioltron)",
      "license": "CC-BY-4.0 (http://creativecommons.org/licenses/by/4.0/)",
      "source": "https://sketchfab.com/models/daa4e743128f44c7859c5c34588518a7",
      "title": "Yeti"
    },
    "generator": "Sketchfab-3.29.3",
    "version": "2.0"
  },
  "bufferViews": [
    {
      "buffer": 0,
      "byteLength": 80616,
      "byteOffset": 0,
      "name": "floatBufferViews",
      "target": 34963
    },
    {
      "buffer": 0,
      "byteLength": 30912,
      "byteOffset": 80616,
      "byteStride": 8,
      "name": "floatBufferViews",
      "target": 34962
    },
    {
      "buffer": 0,
      "byteLength": 92736,
      "byteOffset": 111528,
      "byteStride": 12,
      "name": "floatBufferViews",
      "target": 34962
    },
    {
      "buffer": 0,
      "byteLength": 61824,
      "byteOffset": 204264,
      "byteStride": 16,
      "name": "floatBufferViews",
      "target": 34962
    }
  ],
  "buffers": [
    {
      "byteLength": 266088,
      "uri": "scene.bin"
    }
  ],
  "images": [
    {
      "uri": "textures/Scene_-_Root_emissive.png"
    },
    {
      "uri": "textures/Scene_-_Root_baseColor.png"
    }
  ],
  "materials": [
    {
      "doubleSided": true,
      "emissiveFactor": [
        1,
        1,
        1
      ],
      "emissiveTexture": {
        "index": 0,
        "texCoord": 0
      },
      "name": "Scene_-_Root",
      "pbrMetallicRoughness": {
        "baseColorFactor": [
          1,
          1,
          1,
          1
        ],
        "baseColorTexture": {
          "index": 1,
          "texCoord": 0
        },
        "metallicFactor": 0,
        "roughnessFactor": 0.59999999999999998
      }
    }
  ],
  "meshes": [
    {
      "primitives": [
        {
          "attributes": {
            "NORMAL": 1,
            "POSITION": 0,
            "TANGENT": 2,
            "TEXCOORD_0": 3
          },
          "indices": 4,
          "material": 0,
          "mode": 4
        }
      ]
    },
    {
      "primitives": [
        {
          "attributes": {
            "NORMAL": 6,
            "POSITION": 5,
            "TANGENT": 7,
            "TEXCOORD_0": 8
          },
          "indices": 9,
          "material": 0,
          "mode": 4
        }
      ]
    }
  ],
  "nodes": [
    {
      "children": [
        1
      ],
      "name": "RootNode (gltf orientation matrix)",
      "rotation": [
        -0.70710678118654746,
        -0,
        -0,
        0.70710678118654757
      ]
    },
    {
      "children": [
        2
      ],
      "name": "RootNode (model correction matrix)"
    },
    {
      "children": [
        3,
        4
      ],
      "name": "9c1dffa24de94d43a67c7d7608ee0457.obj.cleaner"
    },
    {
      "mesh": 0,
      "name": ""
    },
    {
      "mesh": 1,
      "name": ""
    }
  ],
  "samplers": [
    {
      "magFilter": 9729,
      "minFilter": 9987,
      "wrapS": 10497,
      "wrapT": 10497
    }
  ],
  "scene": 0,
  "scenes": [
    {
      "name": "OSG_Scene",
      "nodes": [
        0
      ]
    }
  ],
  "textures": [
    {
      "sampler": 0,
      "source": 0
    },
    {
      "sampler": 0,
      "source": 1
    }
  ]
}

